HIERARCHY
ROOT Hips
{
	OFFSET 0.000000 0.000000 0.000000
	CHANNELS 6 Xposition Yposition Zposition Zrotation Yrotation Xrotation 
	JOINT LeftUpLeg_virtual
	{
		OFFSET 0.000000 0.000000 0.000000
		CHANNELS 3 Zrotation Yrotation Xrotation
		JOINT LeftUpLeg
		{
			OFFSET 10.205400 -3.823500 0.155100
			CHANNELS 3 Zrotation Yrotation Xrotation
			JOINT LeftLeg
			{
				OFFSET 0.708757 -12.982077 0.567790
				CHANNELS 3 Zrotation Yrotation Xrotation
				JOINT LeftFoot
				{
					OFFSET -0.708756 -10.717838 -2.184338
					CHANNELS 3 Zrotation Yrotation Xrotation
					JOINT LeftToeBase
					{
						OFFSET 0.108149 -7.191104 7.560241
						CHANNELS 3 Zrotation Yrotation Xrotation
						End Site
						{
							OFFSET 0.000000 0.000000 0.000000
						}
					}
				}
			}
		}
	}
	JOINT RightUpLeg_virtual
	{
		OFFSET 0.000000 0.000000 0.000000
		CHANNELS 3 Zrotation Yrotation Xrotation
		JOINT RightUpLeg
		{
			OFFSET -10.205400 -3.823500 0.005500
			CHANNELS 3 Zrotation Yrotation Xrotation
			JOINT RightLeg
			{
				OFFSET -0.708756 -12.982134 0.610632
				CHANNELS 3 Zrotation Yrotation Xrotation
				JOINT RightFoot
				{
					OFFSET 0.708754 -10.717769 -1.945823
					CHANNELS 3 Zrotation Yrotation Xrotation
					JOINT RightToeBase
					{
						OFFSET -0.108140 -7.191069 7.372968
						CHANNELS 3 Zrotation Yrotation Xrotation
						End Site
						{
							OFFSET 0.000000 0.000000 0.000000
						}
					}
				}
			}
		}
	}
	JOINT Spine_virtual
	{
		OFFSET 0.000000 0.000000 0.000000
		CHANNELS 3 Zrotation Yrotation Xrotation
		JOINT Spine
		{
			OFFSET 0.000000 6.876099 0.125700
			CHANNELS 3 Zrotation Yrotation Xrotation
			JOINT Spine1
			{
				OFFSET 0.000000 8.022060 0.146608
				CHANNELS 3 Zrotation Yrotation Xrotation
				JOINT Spine2
				{
					OFFSET 0.000000 9.168068 0.167552
					CHANNELS 3 Zrotation Yrotation Xrotation
					JOINT Neck_virtual
					{
						OFFSET 0.000000 0.000000 0.000000
						CHANNELS 3 Zrotation Yrotation Xrotation
						JOINT Neck
						{
							OFFSET 0.000000 10.314075 0.188496
							CHANNELS 3 Zrotation Yrotation Xrotation
							JOINT Head
							{
								OFFSET 0.000000 7.643700 -2.377400
								CHANNELS 3 Zrotation Yrotation Xrotation
								End Site
								{
									OFFSET 0.000000 0.000000 0.000000
								}
							}
						}
					}
					JOINT LeftShoulder_virtual
					{
						OFFSET 0.000000 0.000000 0.000000
						CHANNELS 3 Zrotation Yrotation Xrotation
						JOINT LeftShoulder
						{
							OFFSET 4.392200 8.824978 0.174984
							CHANNELS 3 Zrotation Yrotation Xrotation
							JOINT LeftArm
							{
								OFFSET 8.771219 -2.981674 -0.026999
								CHANNELS 3 Zrotation Yrotation Xrotation
								JOINT LeftForeArm
								{
									OFFSET 8.512804 0.000000 -0.000000
									CHANNELS 3 Zrotation Yrotation Xrotation
									JOINT LeftHand
									{
										OFFSET 18.484802 0.000000 -0.000000
										CHANNELS 3 Zrotation Yrotation Xrotation
										End Site
										{
											OFFSET 0.000000 0.000000 0.000000
										}
									}
								}
							}
						}
					}
					JOINT RightShoulder_virtual
					{
						OFFSET 0.000000 0.000000 0.000000
						CHANNELS 3 Zrotation Yrotation Xrotation
						JOINT RightShoulder
						{
							OFFSET -4.392200 8.824993 0.141379
							CHANNELS 3 Zrotation Yrotation Xrotation
							JOINT RightArm
							{
								OFFSET -8.771282 -2.981682 -0.094208
								CHANNELS 3 Zrotation Yrotation Xrotation
								JOINT RightForeArm
								{
									OFFSET -8.494598 0.000000 0.000000
									CHANNELS 3 Zrotation Yrotation Xrotation
									JOINT RightHand
									{
										OFFSET -18.483803 0.000000 0.000001
										CHANNELS 3 Zrotation Yrotation Xrotation
										End Site
										{
											OFFSET 0.000000 0.000000 0.000000
										}
									}
								}
							}
						}
					}
				}
			}
		}
	}
}
MOTION
Frames: 14
Frame Time: 0.033333
-23.640841 35.654640 24.486683 -179.899833 -17.643545 179.978763 -4.265835 -6.813576 10.400699 -17.625412 6.422384 -17.703130 13.789737 4.452785 21.865174 5.603007 -5.437521 -0.715220 0.000000 0.000000 0.000000 0.258208 -5.243754 7.531405 -16.013819 -9.757373 -8.171103 -9.177048 0.982407 15.983136 12.537898 3.796122 22.732975 0.000000 0.000000 0.000000 -1.783479 -2.478558 -1.613070 1.248231 7.872740 -8.633307 -0.217977 -1.914886 6.861545 -0.005404 0.008782 -0.000980 -0.395572 -0.338320 7.432770 -12.880489 11.161563 12.998642 0.000000 0.000000 0.000000 1.672664 0.221369 4.718198 2.674664 0.621186 -1.521074 7.158623 -2.821647 -42.736251 -5.150432 -44.243650 5.792912 0.000000 0.000000 0.000000 -2.443658 1.344147 3.572068 20.761979 4.440259 -0.338134 58.973424 -34.097110 2.387081 -174.855056 70.011304 -176.960557 0.000000 0.000000 0.000000 
-23.679819 35.652161 24.380463 -179.865382 -18.563010 179.979064 -4.281074 -6.939711 10.467301 -17.557076 6.447552 -17.752485 13.625750 3.906220 21.982552 5.750174 -5.573148 -0.832425 0.000000 0.000000 0.000000 0.324083 -5.311958 7.790011 -16.147100 -9.935148 -7.704618 -8.941062 0.743070 16.226716 12.364385 3.542411 22.537790 0.000000 0.000000 0.000000 -1.896834 -2.566041 -1.617317 1.488149 7.954157 -8.474006 -0.239092 -1.879437 6.808992 -0.014683 -0.002720 -0.012663 -0.384984 -0.356167 7.309358 -13.239033 11.603685 12.705900 0.000000 0.000000 0.000000 1.657733 0.289317 4.620907 2.899331 0.655552 -1.391234 7.089135 -3.114555 -42.362937 -5.143524 -44.390465 5.895679 0.000000 0.000000 0.000000 -2.524404 1.420240 3.480789 20.902097 4.318385 -0.379738 58.896537 -34.402949 2.363426 -174.862391 70.071887 -177.065687 0.000000 0.000000 0.000000 
-23.723715 35.649719 24.292522 -179.981864 -19.442301 -179.990552 -4.426383 -6.970086 10.548203 -17.405755 5.863232 -17.750603 13.555665 3.734700 22.298980 5.896799 -5.674941 -0.816408 0.000000 0.000000 0.000000 0.328732 -5.323624 7.876955 -16.351654 -10.742088 -7.303679 -8.819302 0.888444 16.688684 12.333801 3.480022 22.085027 0.000000 0.000000 0.000000 -2.089637 -2.647034 -1.539700 1.609202 8.048432 -8.240611 -0.257237 -1.824096 6.732292 0.010439 0.001514 0.005775 -0.355824 -0.447692 7.253854 -13.231455 12.093258 12.522765 0.000000 0.000000 0.000000 1.632172 0.285989 4.527633 3.026115 0.668933 -1.220550 7.255981 -3.298373 -41.982980 -5.147316 -44.413090 5.952661 0.000000 0.000000 0.000000 -2.554336 1.457160 3.452454 21.104318 4.163290 -0.357647 58.909432 -34.551400 2.053664 -175.082446 69.962283 -177.232576 0.000000 0.000000 0.000000 
-23.780966 35.646416 24.216383 179.969542 -20.124787 -179.927059 -4.534776 -6.901504 10.572046 -17.487137 6.005792 -17.931012 13.563969 3.153509 22.507283 5.903860 -5.865492 -0.849646 0.000000 0.000000 0.000000 0.446907 -5.227746 7.936667 -16.642412 -11.248089 -6.947118 -8.656896 0.784637 17.176787 12.315634 3.479528 21.693796 0.000000 0.000000 0.000000 -2.213625 -2.616344 -1.481851 1.667526 8.137627 -8.105865 -0.257898 -1.793096 6.795973 0.015320 0.023180 -0.008056 -0.298583 -0.240503 7.216434 -12.985440 12.294495 12.495406 0.000000 0.000000 0.000000 1.605110 0.283857 4.468951 3.047759 0.706899 -1.201679 7.603025 -3.527899 -41.774987 -5.154859 -44.293801 5.974419 0.000000 0.000000 0.000000 -2.614444 1.469523 3.434090 21.352110 3.906839 -0.383346 58.914685 -34.654474 1.845203 -175.014896 69.682027 -176.978329 0.000000 0.000000 0.000000 
-23.841879 35.641975 24.139601 179.938001 -20.687929 -179.864644 -4.581797 -6.787792 10.603568 -17.448335 5.733168 -17.991458 13.534627 2.962883 22.751763 5.924722 -6.013390 -0.879188 0.000000 0.000000 0.000000 0.526085 -5.094534 8.069080 -16.849249 -11.747646 -6.687585 -8.559661 0.841514 17.617276 12.317682 3.368590 21.408584 0.000000 0.000000 0.000000 -2.275104 -2.721225 -1.399953 1.662780 8.269319 -7.966215 -0.246437 -1.712469 6.897565 0.028553 0.074278 0.028030 -0.257332 -0.196959 7.179316 -12.543478 12.415222 12.459121 0.000000 0.000000 0.000000 1.593973 0.332202 4.458494 2.979160 0.807515 -1.194647 7.956502 -3.785671 -41.790868 -5.067306 -44.016953 5.825706 0.000000 0.000000 0.000000 -2.628786 1.466219 3.411970 21.679203 3.726807 -0.362259 58.874967 -34.677854 1.638479 -175.298499 69.405029 -176.953549 0.000000 0.000000 0.000000 
-23.911354 35.636410 24.068851 179.934558 -21.182776 -179.887143 -4.595355 -6.860762 10.704606 -17.481461 5.503265 -18.029997 13.552723 2.991727 22.867752 5.937922 -6.129354 -0.875336 0.000000 0.000000 0.000000 0.631640 -5.169173 8.200706 -17.096793 -12.150904 -6.591877 -8.470690 1.079081 18.068285 12.361563 3.218113 21.220189 0.000000 0.000000 0.000000 -2.322253 -2.536752 -1.257143 1.625626 8.351256 -7.740273 -0.244724 -1.761669 6.893811 0.030098 0.009204 0.004806 -0.231642 -0.236407 7.340635 -11.998482 12.402310 12.465593 0.000000 0.000000 0.000000 1.581108 0.296035 4.539262 2.812167 0.996051 -1.128008 8.183871 -4.064372 -41.971219 -5.114435 -43.690859 5.748931 0.000000 0.000000 0.000000 -2.648383 1.436434 3.578439 22.002939 3.594165 -0.455958 58.620174 -34.622857 1.929383 -175.400132 69.152906 -176.697431 0.000000 0.000000 0.000000 
-23.981094 35.633934 23.995834 179.986112 -21.366211 -179.798364 -4.567110 -6.838191 10.755624 -17.484936 5.347535 -18.026406 13.412634 2.902034 22.927277 6.085443 -6.104424 -0.785528 0.000000 0.000000 0.000000 0.714933 -5.155279 8.199319 -17.184097 -12.292580 -6.631258 -8.343284 1.490598 18.301779 12.314116 3.097408 21.166234 0.000000 0.000000 0.000000 -2.311498 -2.552299 -1.240267 1.572787 8.481132 -7.572990 -0.226895 -1.774424 6.960461 0.014166 -0.006571 -0.017006 -0.191793 -0.199534 7.534951 -11.399547 12.277728 12.497477 0.000000 0.000000 0.000000 1.597447 0.282839 4.691127 2.642749 1.214068 -1.158651 8.217367 -4.378871 -41.740099 -5.008318 -43.393445 5.486668 0.000000 0.000000 0.000000 -2.653457 1.438755 3.769717 22.311076 3.566087 -0.458684 58.292557 -34.538040 2.366597 -175.420910 69.016794 -176.357861 0.000000 0.000000 0.000000 
-24.044952 35.640343 23.931271 179.995880 -21.450482 -179.812284 -4.605093 -6.943226 10.808420 -17.523653 5.282917 -18.045758 13.488998 2.916349 23.036702 6.136245 -6.075941 -0.763454 0.000000 0.000000 0.000000 0.828667 -5.285499 8.167291 -17.489341 -12.427469 -6.632837 -8.203826 1.685960 18.518342 12.386283 3.032864 21.166900 0.000000 0.000000 0.000000 -2.347359 -2.601383 -1.173413 1.502025 8.669317 -7.339667 -0.192696 -1.733756 7.053289 -0.006396 0.018935 -0.009031 -0.147930 -0.165380 7.660604 -10.857774 12.117550 12.524316 0.000000 0.000000 0.000000 1.599555 0.272223 4.848522 2.437946 1.493075 -1.262896 8.040977 -4.770678 -41.672418 -4.975474 -42.977722 5.254436 0.000000 0.000000 0.000000 -2.650764 1.385259 3.899795 22.568565 3.595368 -0.505082 57.916869 -34.297771 3.055000 -175.146336 68.934463 -175.765110 0.000000 0.000000 0.000000 
-24.095629 35.652290 23.881641 179.970403 -21.455813 -179.766727 -4.695764 -7.045523 10.871645 -17.540581 5.268426 -18.093977 13.517777 2.925869 23.185822 6.162125 -6.024878 -0.676882 0.000000 0.000000 0.000000 0.895254 -5.434298 8.099265 -17.750104 -12.474374 -6.655246 -8.053969 1.878848 18.663586 12.413893 2.978285 21.187831 0.000000 0.000000 0.000000 -2.418174 -2.713914 -1.075541 1.425365 8.774580 -7.055190 -0.191696 -1.741993 7.143543 0.031580 0.003970 -0.006220 -0.157078 -0.163868 7.805865 -10.379506 11.940992 12.501247 0.000000 0.000000 0.000000 1.588639 0.264284 5.012214 2.235464 1.788665 -1.277875 7.621305 -5.001621 -41.661975 -4.982007 -42.660716 5.062594 0.000000 0.000000 0.000000 -2.652769 1.389706 4.082658 22.739071 3.677057 -0.617495 57.616102 -34.194427 3.649669 -175.078034 69.051457 -175.461454 0.000000 0.000000 0.000000 
-24.129225 35.672493 23.856018 179.948601 -21.446241 -179.774800 -4.775968 -7.060910 10.952412 -17.542139 5.303833 -18.160515 13.606086 3.029596 23.323838 6.044124 -6.036030 -0.523784 0.000000 0.000000 0.000000 1.069063 -5.531464 8.005987 -18.189861 -12.613888 -6.671378 -7.925747 1.732136 18.945840 12.601438 2.984332 21.190208 0.000000 0.000000 0.000000 -2.499109 -2.746786 -0.879495 1.386135 8.857074 -6.739497 -0.169241 -1.715640 7.218563 0.066011 0.016641 0.030584 -0.185606 -0.272787 7.844145 -9.991510 11.751340 12.354592 0.000000 0.000000 0.000000 1.543145 0.268510 5.121405 2.030160 2.091644 -1.318613 6.933967 -5.050468 -41.903822 -4.931206 -42.422158 4.811869 0.000000 0.000000 0.000000 -2.652794 1.423562 4.112783 22.820816 3.774369 -0.584385 57.631306 -33.992117 3.931341 -174.568748 69.211017 -174.837953 0.000000 0.000000 0.000000 
-24.159122 35.693363 23.861864 179.921786 -21.431529 -179.744583 -4.848620 -7.036658 11.017942 -17.541529 5.299406 -18.340719 13.638611 3.208292 23.388318 5.846730 -6.060254 -0.334587 0.000000 0.000000 0.000000 1.204345 -5.544516 7.969241 -18.518627 -12.669552 -6.799358 -7.762701 1.727365 19.202665 12.626775 3.007624 21.235763 0.000000 0.000000 0.000000 -2.538993 -2.710349 -0.586880 1.382186 8.835137 -6.313400 -0.197130 -1.695357 7.195725 0.043488 0.022524 0.088345 -0.176944 -0.373246 7.938272 -9.704346 11.629587 12.167766 0.000000 0.000000 0.000000 1.572612 0.226829 5.252028 1.815221 2.352788 -1.371288 6.133565 -5.150230 -42.373893 -4.917768 -42.377649 4.649526 0.000000 0.000000 0.000000 -2.630658 1.411314 4.254041 22.756532 3.928265 -0.649043 57.901289 -33.675455 3.923670 -174.094036 69.515288 -174.366602 0.000000 0.000000 0.000000 
-24.186134 35.716980 23.926165 -179.978831 -21.404894 -179.709421 -4.778414 -6.964519 11.106991 -17.559834 5.443479 -18.739360 13.577911 3.386296 23.396661 5.579888 -6.098475 -0.054544 0.000000 0.000000 0.000000 1.454153 -5.500683 7.935316 -18.826088 -12.744965 -7.082769 -7.709361 1.680981 19.473913 12.713516 2.969668 21.330017 0.000000 0.000000 0.000000 -2.489049 -2.650203 -0.232455 1.446920 8.693190 -5.881165 -0.218925 -1.696067 7.356136 0.030800 0.005482 0.013605 -0.200467 -0.116684 8.108892 -9.541214 11.578157 11.932451 0.000000 0.000000 0.000000 1.502608 0.252582 5.449422 1.598849 2.632074 -1.463828 5.158706 -5.380137 -42.860738 -4.951770 -42.560169 4.570891 0.000000 0.000000 0.000000 -2.666214 1.448720 4.434138 22.600519 4.128498 -0.751962 58.335300 -33.269244 3.832473 -173.312130 69.886420 -173.710958 0.000000 0.000000 0.000000 
-24.214546 35.739170 24.068281 -179.963245 -21.271745 -179.815071 -4.764557 -6.740645 11.309644 -17.598022 5.686179 -19.203997 13.509472 3.739280 23.348536 5.237409 -6.145910 0.250745 0.000000 0.000000 0.000000 1.686675 -5.384973 8.002366 -19.335714 -12.847481 -7.438508 -7.563206 1.249962 19.811061 12.656646 3.113808 21.501789 0.000000 0.000000 0.000000 -2.440293 -2.511284 0.360930 1.507443 8.470654 -5.253098 -0.255686 -1.644299 7.458474 0.030992 0.026053 0.025369 -0.236264 -0.296687 8.183362 -9.485585 11.531951 11.569184 0.000000 0.000000 0.000000 1.441787 0.224645 5.619402 1.428758 2.715184 -1.348737 4.205656 -5.940960 -43.395907 -4.734004 -42.866028 4.364743 0.000000 0.000000 0.000000 -2.674074 1.421618 4.550659 22.361163 4.304029 -0.880583 58.721131 -32.695996 3.733190 -172.912263 70.349521 -173.510574 0.000000 0.000000 0.000000 
-24.236792 35.754330 24.292706 -179.954161 -21.072735 -179.809101 -4.730795 -6.478092 11.490479 -17.741505 5.846448 -19.955692 13.426513 4.230400 23.347629 4.825652 -6.234901 0.756015 0.000000 0.000000 0.000000 1.733242 -5.182932 8.159516 -19.329871 -12.778971 -8.144468 -7.420492 2.068150 19.693233 12.582630 3.140685 21.834424 0.000000 0.000000 0.000000 -2.374368 -2.371488 1.013153 1.555884 8.094636 -4.535777 -0.296218 -1.613486 7.558009 0.031864 0.006282 0.012254 -0.287744 -0.272138 8.411244 -9.578323 11.549019 11.204585 0.000000 0.000000 0.000000 1.419460 0.282715 5.803442 1.339370 2.791678 -1.447018 3.564077 -6.885155 -43.696190 -4.769638 -43.110798 4.522599 0.000000 0.000000 0.000000 -2.732359 1.493506 4.750899 21.981584 4.618891 -0.959500 59.112193 -31.978717 3.794503 -171.960162 70.742810 -172.855231 0.000000 0.000000 0.000000 
